<svg width="24" height="22" viewBox="0 0 24 22" fill="none" xmlns="http://www.w3.org/2000/svg">
<path d="M20.0002 9.64423H22.0002C22.0002 5.14611 18.1272 1.75366 12.9902 1.75366V3.50732C17.0522 3.50732 20.0002 6.08782 20.0002 9.64423Z" fill="white"/>
<path d="M12.9998 7.01462C15.1028 7.01462 15.9998 7.80114 15.9998 9.6451H17.9998C17.9998 6.81734 16.2248 5.26097 12.9998 5.26097V7.01462ZM16.4218 11.7872C16.2296 11.6341 15.9771 11.5524 15.7176 11.5594C15.4581 11.5665 15.2118 11.6616 15.0308 11.8249L12.6378 13.9828C12.0618 13.8863 10.9038 13.5698 9.71179 12.5272C8.51979 11.4812 8.15879 10.4632 8.05179 9.96164L10.5108 7.86251C10.6972 7.70392 10.8059 7.48795 10.814 7.26031C10.822 7.03268 10.7287 6.81123 10.5538 6.64285L6.85879 3.0803C6.68384 2.91138 6.44067 2.80892 6.18095 2.79468C5.92122 2.78044 5.66539 2.85553 5.46779 3.00401L3.29779 4.63579C3.1249 4.78793 3.02171 4.99042 3.00779 5.20485C2.99279 5.42406 2.70679 10.6166 7.29879 14.6448C11.3048 18.1565 16.3228 18.4134 17.7048 18.4134C17.9068 18.4134 18.0308 18.4081 18.0638 18.4064C18.3083 18.3944 18.5391 18.3035 18.7118 18.1512L20.5718 16.2476C20.7413 16.0745 20.8271 15.8502 20.811 15.6225C20.795 15.3947 20.6783 15.1815 20.4858 15.0279L16.4218 11.7872Z" fill="white"/>
</svg>
