<svg width="24" height="22" viewBox="0 0 24 22" fill="none" xmlns="http://www.w3.org/2000/svg">
<path d="M12 1.31519C9.81276 1.31745 7.71584 2.08031 6.16923 3.43642C4.62261 4.79253 3.75259 6.63117 3.75001 8.549C3.74739 10.1163 4.33124 11.641 5.41201 12.8893C5.41201 12.8893 5.63701 13.149 5.67376 13.1865L12 19.7285L18.3293 13.1832C18.3623 13.1484 18.588 12.8893 18.588 12.8893L18.5888 12.8873C19.669 11.6396 20.2526 10.1155 20.25 8.549C20.2474 6.63117 19.3774 4.79253 17.8308 3.43642C16.2842 2.08031 14.1873 1.31745 12 1.31519ZM12 11.1795C11.4067 11.1795 10.8266 11.0252 10.3333 10.7362C9.83995 10.4471 9.45543 10.0363 9.22837 9.55564C9.00131 9.07498 8.9419 8.54608 9.05765 8.03582C9.17341 7.52556 9.45913 7.05685 9.87869 6.68897C10.2982 6.32109 10.8328 6.07056 11.4147 5.96907C11.9967 5.86757 12.5999 5.91966 13.1481 6.11875C13.6962 6.31785 14.1648 6.655 14.4944 7.08758C14.8241 7.52016 15 8.02874 15 8.549C14.999 9.24638 14.6826 9.91495 14.1202 10.4081C13.5578 10.9012 12.7954 11.1786 12 11.1795Z" fill="white"/>
</svg>
