<svg width="749" height="146" viewBox="0 0 749 146" fill="none" xmlns="http://www.w3.org/2000/svg">
<path d="M37.0721 58.1793C30.6166 58.1793 25.1214 56.9789 20.5866 54.5781C16.1051 52.1773 12.6906 48.8162 10.3431 44.4947C7.99567 40.1733 6.82194 35.1316 6.82194 29.3696C6.82194 24.8881 7.51551 20.8601 8.90264 17.2856C10.3431 13.6577 12.3971 10.5633 15.0647 8.00247C17.7323 5.38826 20.9867 3.41426 24.828 2.08048C28.7226 0.693349 33.1241 -0.000216557 38.0324 -0.000216557C40.7 -0.000216557 43.4209 0.266539 46.1952 0.800051C48.9694 1.28021 51.6903 2.21386 54.3579 3.60099C55.745 4.24121 56.6787 5.14818 57.1588 6.32191C57.6924 7.44228 57.8524 8.64268 57.639 9.92312C57.4789 11.1502 57.0255 12.2972 56.2785 13.3643C55.585 14.3779 54.6247 15.0715 53.3976 15.445C52.1705 15.7651 50.7834 15.5783 49.2362 14.8848C47.6356 14.1379 45.9017 13.5777 44.0344 13.2042C42.1671 12.7774 40.1931 12.564 38.1124 12.564C34.5379 12.564 31.5502 13.2042 29.1494 14.4846C26.802 15.7651 25.0414 17.659 23.8677 20.1666C22.6939 22.6741 22.1071 25.7418 22.1071 29.3696C22.1071 34.8115 23.4409 38.9195 26.1084 41.6938C28.776 44.468 32.724 45.8552 37.9524 45.8552C39.5529 45.8552 41.2868 45.6951 43.1541 45.375C45.0748 45.0549 46.9954 44.6014 48.9161 44.0146L46.1952 49.5364V35.8518H40.5933C38.7793 35.8518 37.3655 35.3983 36.3519 34.4914C35.3915 33.5844 34.9114 32.304 34.9114 30.6501C34.9114 28.9962 35.3915 27.7424 36.3519 26.8888C37.3655 25.9818 38.7793 25.5284 40.5933 25.5284H52.4373C54.3045 25.5284 55.7184 26.0352 56.6787 27.0489C57.6924 28.0092 58.1992 29.423 58.1992 31.2903V48.9762C58.1992 50.5768 57.8524 51.9372 57.1588 53.0576C56.5186 54.178 55.4783 54.9782 54.0378 55.4584C51.5303 56.312 48.8094 56.9789 45.8751 57.4591C42.9407 57.9392 40.0064 58.1793 37.0721 58.1793ZM88.535 58.1793C83.7334 58.1793 79.572 57.3524 76.0508 55.6985C72.583 53.9912 69.9154 51.5904 68.0481 48.4961C66.1808 45.4017 65.2472 41.7471 65.2472 37.5324C65.2472 33.4777 66.1275 29.9298 67.8881 26.8888C69.702 23.7944 72.1562 21.3936 75.2505 19.6864C78.3983 17.9258 81.9728 17.0455 85.9741 17.0455C88.9085 17.0455 91.576 17.5257 93.9768 18.486C96.3776 19.393 98.4317 20.7534 100.139 22.5674C101.846 24.328 103.127 26.462 103.98 28.9695C104.887 31.477 105.341 34.278 105.341 37.3723C105.341 38.4394 105.047 39.2396 104.46 39.7731C103.873 40.2533 102.94 40.4934 101.659 40.4934H77.1712V33.7711H94.9371L93.6567 34.8115C93.6567 32.8375 93.39 31.2369 92.8564 30.0099C92.3229 28.7828 91.5227 27.8491 90.4556 27.2089C89.442 26.5687 88.1615 26.2486 86.6144 26.2486C84.9605 26.2486 83.52 26.6487 82.2929 27.449C81.1192 28.1959 80.2122 29.3163 79.572 30.8101C78.9318 32.304 78.6117 34.1713 78.6117 36.412V37.1323C78.6117 40.9202 79.4386 43.6411 81.0925 45.295C82.7997 46.8955 85.414 47.6958 88.9351 47.6958C90.1089 47.6958 91.4426 47.5624 92.9365 47.2957C94.4837 46.9756 95.9508 46.5487 97.338 46.0152C98.7251 45.4817 99.9255 45.4017 100.939 45.7752C101.953 46.0953 102.726 46.6821 103.26 47.5357C103.847 48.336 104.167 49.2697 104.22 50.3367C104.274 51.3504 104.034 52.364 103.5 53.3777C102.967 54.338 102.086 55.0849 100.859 55.6185C98.9918 56.4721 96.9912 57.1123 94.8571 57.5391C92.7764 57.9659 90.669 58.1793 88.535 58.1793ZM131.812 58.1793C127.811 58.1793 124.503 57.5658 121.889 56.3387C119.328 55.1116 117.407 53.271 116.127 50.8168C114.846 48.3093 114.206 45.1883 114.206 41.4537V28.4093H111.485C109.778 28.4093 108.444 27.9558 107.484 27.0489C106.577 26.1419 106.123 24.8348 106.123 23.1275C106.123 21.4203 106.577 20.1399 107.484 19.2863C108.444 18.3793 109.778 17.9258 111.485 17.9258H114.206V12.9641C114.206 10.6167 114.82 8.82941 116.047 7.60233C117.274 6.37525 119.034 5.76172 121.329 5.76172C123.623 5.76172 125.383 6.37525 126.61 7.60233C127.837 8.82941 128.451 10.6167 128.451 12.9641V17.9258H135.013C136.774 17.9258 138.107 18.3793 139.014 19.2863C139.975 20.1399 140.455 21.4203 140.455 23.1275C140.455 24.8348 139.975 26.1419 139.014 27.0489C138.107 27.9558 136.774 28.4093 135.013 28.4093H128.451V40.9735C128.451 42.9475 128.904 44.4147 129.811 45.375C130.772 46.282 132.266 46.7355 134.293 46.7355C135.04 46.7355 135.76 46.6554 136.454 46.4954C137.147 46.3353 137.787 46.2553 138.374 46.2553C139.228 46.202 139.921 46.4687 140.455 47.0556C140.988 47.5891 141.255 48.8428 141.255 50.8168C141.255 52.4174 141.015 53.7778 140.535 54.8982C140.055 55.9652 139.201 56.7388 137.974 57.219C137.227 57.4858 136.214 57.6992 134.933 57.8592C133.653 58.0726 132.612 58.1793 131.812 58.1793ZM188.784 58.1793C184.783 58.1793 181.475 57.5658 178.861 56.3387C176.3 55.1116 174.379 53.271 173.099 50.8168C171.819 48.3093 171.178 45.1883 171.178 41.4537V28.4093H168.457C166.75 28.4093 165.416 27.9558 164.456 27.0489C163.549 26.1419 163.096 24.8348 163.096 23.1275C163.096 21.4203 163.549 20.1399 164.456 19.2863C165.416 18.3793 166.75 17.9258 168.457 17.9258H171.178V12.9641C171.178 10.6167 171.792 8.82941 173.019 7.60233C174.246 6.37525 176.007 5.76172 178.301 5.76172C180.595 5.76172 182.355 6.37525 183.583 7.60233C184.81 8.82941 185.423 10.6167 185.423 12.9641V17.9258H191.985C193.746 17.9258 195.08 18.3793 195.987 19.2863C196.947 20.1399 197.427 21.4203 197.427 23.1275C197.427 24.8348 196.947 26.1419 195.987 27.0489C195.08 27.9558 193.746 28.4093 191.985 28.4093H185.423V40.9735C185.423 42.9475 185.877 44.4147 186.784 45.375C187.744 46.282 189.238 46.7355 191.265 46.7355C192.012 46.7355 192.732 46.6554 193.426 46.4954C194.119 46.3353 194.76 46.2553 195.346 46.2553C196.2 46.202 196.894 46.4687 197.427 47.0556C197.961 47.5891 198.227 48.8428 198.227 50.8168C198.227 52.4174 197.987 53.7778 197.507 54.8982C197.027 55.9652 196.173 56.7388 194.946 57.219C194.199 57.4858 193.186 57.6992 191.905 57.8592C190.625 58.0726 189.585 58.1793 188.784 58.1793ZM210.66 58.0193C208.42 58.0193 206.686 57.4057 205.459 56.1786C204.232 54.9516 203.618 53.1643 203.618 50.8168V7.36226C203.618 5.0148 204.232 3.22753 205.459 2.00045C206.686 0.773374 208.42 0.159835 210.66 0.159835C212.954 0.159835 214.715 0.773374 215.942 2.00045C217.223 3.22753 217.863 5.0148 217.863 7.36226V24.8081H216.582C217.863 22.3006 219.677 20.38 222.024 19.0462C224.425 17.7124 227.146 17.0455 230.187 17.0455C233.335 17.0455 235.922 17.659 237.95 18.8861C239.977 20.0599 241.497 21.9271 242.511 24.488C243.525 26.9955 244.032 30.1699 244.032 34.0112V50.8168C244.032 53.1643 243.418 54.9516 242.191 56.1786C240.964 57.4057 239.203 58.0193 236.909 58.0193C234.615 58.0193 232.854 57.4057 231.627 56.1786C230.4 54.9516 229.787 53.1643 229.787 50.8168V34.5714C229.787 32.1706 229.36 30.4633 228.506 29.4497C227.706 28.436 226.506 27.9292 224.905 27.9292C222.771 27.9292 221.064 28.6227 219.783 30.0099C218.503 31.3436 217.863 33.1576 217.863 35.4517V50.8168C217.863 55.6185 215.462 58.0193 210.66 58.0193ZM273.597 58.1793C268.796 58.1793 264.634 57.3524 261.113 55.6985C257.645 53.9912 254.978 51.5904 253.11 48.4961C251.243 45.4017 250.309 41.7471 250.309 37.5324C250.309 33.4777 251.19 29.9298 252.95 26.8888C254.764 23.7944 257.218 21.3936 260.313 19.6864C263.46 17.9258 267.035 17.0455 271.036 17.0455C273.971 17.0455 276.638 17.5257 279.039 18.486C281.44 19.393 283.494 20.7534 285.201 22.5674C286.908 24.328 288.189 26.462 289.042 28.9695C289.949 31.477 290.403 34.278 290.403 37.3723C290.403 38.4394 290.109 39.2396 289.522 39.7731C288.936 40.2533 288.002 40.4934 286.722 40.4934H262.233V33.7711H279.999L278.719 34.8115C278.719 32.8375 278.452 31.2369 277.919 30.0099C277.385 28.7828 276.585 27.8491 275.518 27.2089C274.504 26.5687 273.224 26.2486 271.676 26.2486C270.023 26.2486 268.582 26.6487 267.355 27.449C266.181 28.1959 265.274 29.3163 264.634 30.8101C263.994 32.304 263.674 34.1713 263.674 36.412V37.1323C263.674 40.9202 264.501 43.6411 266.155 45.295C267.862 46.8955 270.476 47.6958 273.997 47.6958C275.171 47.6958 276.505 47.5624 277.999 47.2957C279.546 46.9756 281.013 46.5487 282.4 46.0152C283.787 45.4817 284.988 45.4017 286.001 45.7752C287.015 46.0953 287.789 46.6821 288.322 47.5357C288.909 48.336 289.229 49.2697 289.282 50.3367C289.336 51.3504 289.096 52.364 288.562 53.3777C288.029 54.338 287.148 55.0849 285.921 55.6185C284.054 56.4721 282.053 57.1123 279.919 57.5391C277.839 57.9659 275.731 58.1793 273.597 58.1793ZM527.791 58.1793C523.363 58.1793 519.495 57.3524 516.187 55.6985C512.933 54.0446 510.399 51.6705 508.585 48.5761C506.771 45.4284 505.864 41.7471 505.864 37.5324C505.864 34.3313 506.371 31.477 507.384 28.9695C508.398 26.4087 509.865 24.2479 511.786 22.4873C513.76 20.7267 516.081 19.393 518.748 18.486C521.469 17.5257 524.483 17.0455 527.791 17.0455C529.338 17.0455 530.966 17.2056 532.673 17.5257C534.38 17.7924 536.141 18.3259 537.955 19.1262C539.235 19.6064 540.115 20.3533 540.596 21.367C541.129 22.3273 541.342 23.3676 541.236 24.488C541.182 25.6084 540.862 26.6221 540.275 27.529C539.742 28.436 538.968 29.0495 537.955 29.3696C536.994 29.6898 535.901 29.5564 534.674 28.9695C533.82 28.5427 532.913 28.2493 531.953 28.0892C531.046 27.8758 530.165 27.7691 529.312 27.7691C527.871 27.7691 526.591 27.9825 525.47 28.4093C524.403 28.8361 523.496 29.4763 522.75 30.33C522.003 31.1302 521.416 32.1439 520.989 33.371C520.615 34.5981 520.429 35.9852 520.429 37.5324C520.429 40.6268 521.202 43.0542 522.75 44.8148C524.297 46.5754 526.484 47.4557 529.312 47.4557C530.165 47.4557 531.046 47.3757 531.953 47.2156C532.86 47.0022 533.767 46.6821 534.674 46.2553C535.901 45.6685 536.994 45.5617 537.955 45.9352C538.915 46.2553 539.689 46.8689 540.275 47.7758C540.862 48.6828 541.182 49.6965 541.236 50.8168C541.289 51.8839 541.049 52.9242 540.515 53.9379C539.982 54.8982 539.075 55.6185 537.795 56.0986C536.034 56.8989 534.3 57.4324 532.593 57.6992C530.939 58.0193 529.338 58.1793 527.791 58.1793ZM560.074 58.1793C557.033 58.1793 554.339 57.6191 551.991 56.4988C549.697 55.3784 547.883 53.8579 546.549 51.9372C545.269 49.9632 544.629 47.7225 544.629 45.215C544.629 42.334 545.376 40.0666 546.87 38.4127C548.363 36.7588 550.764 35.5851 554.072 34.8915C557.38 34.1446 561.781 33.7711 567.276 33.7711H571.678V40.4934H567.276C565.196 40.4934 563.462 40.6534 562.075 40.9735C560.741 41.2403 559.754 41.6938 559.114 42.334C558.473 42.9209 558.153 43.6945 558.153 44.6548C558.153 45.8819 558.58 46.8955 559.434 47.6958C560.341 48.4961 561.621 48.8962 563.275 48.8962C564.609 48.8962 565.783 48.6028 566.796 48.0159C567.863 47.429 568.717 46.6288 569.357 45.6151C569.997 44.5481 570.317 43.321 570.317 41.9339V32.6507C570.317 30.7301 569.811 29.3696 568.797 28.5694C567.837 27.7691 566.156 27.369 563.755 27.369C562.475 27.369 561.034 27.529 559.434 27.8491C557.833 28.1159 556.046 28.6227 554.072 29.3696C552.631 29.9032 551.404 29.9832 550.391 29.6097C549.377 29.2363 548.577 28.5961 547.99 27.6891C547.456 26.7821 547.19 25.7951 547.19 24.7281C547.243 23.6611 547.59 22.6474 548.23 21.6871C548.924 20.7267 549.964 19.9798 551.351 19.4463C553.912 18.486 556.259 17.8458 558.393 17.5257C560.581 17.2056 562.581 17.0455 564.395 17.0455C568.77 17.0455 572.371 17.6857 575.199 18.9662C578.08 20.1932 580.214 22.1139 581.601 24.7281C583.042 27.2889 583.762 30.5967 583.762 34.6514V50.8168C583.762 53.1643 583.202 54.9516 582.081 56.1786C580.961 57.4057 579.334 58.0193 577.2 58.0193C575.012 58.0193 573.332 57.4057 572.158 56.1786C571.038 54.9516 570.477 53.1643 570.477 50.8168V48.7361L570.958 49.8565C570.691 51.5638 570.077 53.0309 569.117 54.258C568.157 55.4851 566.903 56.4454 565.356 57.139C563.809 57.8325 562.048 58.1793 560.074 58.1793ZM599.156 58.0193C596.808 58.0193 594.994 57.4057 593.714 56.1786C592.487 54.9516 591.873 53.1643 591.873 50.8168V24.328C591.873 22.0338 592.46 20.2733 593.634 19.0462C594.861 17.8191 596.595 17.2056 598.836 17.2056C601.076 17.2056 602.784 17.8191 603.957 19.0462C605.131 20.2733 605.718 22.0338 605.718 24.328V27.6091H604.918C605.451 24.408 606.812 21.8738 608.999 20.0065C611.24 18.1392 614.014 17.1522 617.322 17.0455C618.869 16.9922 620.016 17.3923 620.763 18.2459C621.563 19.0462 621.99 20.5667 622.043 22.8074C622.043 24.7281 621.643 26.2486 620.843 27.369C620.043 28.4893 618.522 29.1562 616.282 29.3696L614.441 29.5297C611.613 29.7965 609.559 30.5967 608.279 31.9305C606.998 33.2109 606.358 35.1316 606.358 37.6924V50.8168C606.358 53.1643 605.745 54.9516 604.518 56.1786C603.291 57.4057 601.503 58.0193 599.156 58.0193ZM647.316 58.1793C642.515 58.1793 638.353 57.3524 634.832 55.6985C631.364 53.9912 628.697 51.5904 626.829 48.4961C624.962 45.4017 624.029 41.7471 624.029 37.5324C624.029 33.4777 624.909 29.9298 626.669 26.8888C628.483 23.7944 630.938 21.3936 634.032 19.6864C637.18 17.9258 640.754 17.0455 644.755 17.0455C647.69 17.0455 650.357 17.5257 652.758 18.486C655.159 19.393 657.213 20.7534 658.92 22.5674C660.627 24.328 661.908 26.462 662.762 28.9695C663.669 31.477 664.122 34.278 664.122 37.3723C664.122 38.4394 663.829 39.2396 663.242 39.7731C662.655 40.2533 661.721 40.4934 660.441 40.4934H635.953V33.7711H653.718L652.438 34.8115C652.438 32.8375 652.171 31.2369 651.638 30.0099C651.104 28.7828 650.304 27.8491 649.237 27.2089C648.223 26.5687 646.943 26.2486 645.396 26.2486C643.742 26.2486 642.301 26.6487 641.074 27.449C639.901 28.1959 638.994 29.3163 638.353 30.8101C637.713 32.304 637.393 34.1713 637.393 36.412V37.1323C637.393 40.9202 638.22 43.6411 639.874 45.295C641.581 46.8955 644.195 47.6958 647.716 47.6958C648.89 47.6958 650.224 47.5624 651.718 47.2957C653.265 46.9756 654.732 46.5487 656.119 46.0152C657.506 45.4817 658.707 45.4017 659.721 45.7752C660.734 46.0953 661.508 46.6821 662.041 47.5357C662.628 48.336 662.948 49.2697 663.002 50.3367C663.055 51.3504 662.815 52.364 662.281 53.3777C661.748 54.338 660.868 55.0849 659.64 55.6185C657.773 56.4721 655.773 57.1123 653.638 57.5391C651.558 57.9659 649.45 58.1793 647.316 58.1793ZM691.706 58.1793C686.905 58.1793 682.743 57.3524 679.222 55.6985C675.754 53.9912 673.087 51.5904 671.219 48.4961C669.352 45.4017 668.418 41.7471 668.418 37.5324C668.418 33.4777 669.299 29.9298 671.059 26.8888C672.873 23.7944 675.327 21.3936 678.422 19.6864C681.57 17.9258 685.144 17.0455 689.145 17.0455C692.08 17.0455 694.747 17.5257 697.148 18.486C699.549 19.393 701.603 20.7534 703.31 22.5674C705.017 24.328 706.298 26.462 707.151 28.9695C708.058 31.477 708.512 34.278 708.512 37.3723C708.512 38.4394 708.218 39.2396 707.632 39.7731C707.045 40.2533 706.111 40.4934 704.831 40.4934H680.342V33.7711H698.108L696.828 34.8115C696.828 32.8375 696.561 31.2369 696.028 30.0099C695.494 28.7828 694.694 27.8491 693.627 27.2089C692.613 26.5687 691.333 26.2486 689.786 26.2486C688.132 26.2486 686.691 26.6487 685.464 27.449C684.29 28.1959 683.383 29.3163 682.743 30.8101C682.103 32.304 681.783 34.1713 681.783 36.412V37.1323C681.783 40.9202 682.61 43.6411 684.264 45.295C685.971 46.8955 688.585 47.6958 692.106 47.6958C693.28 47.6958 694.614 47.5624 696.108 47.2957C697.655 46.9756 699.122 46.5487 700.509 46.0152C701.896 45.4817 703.097 45.4017 704.11 45.7752C705.124 46.0953 705.898 46.6821 706.431 47.5357C707.018 48.336 707.338 49.2697 707.392 50.3367C707.445 51.3504 707.205 52.364 706.671 53.3777C706.138 54.338 705.257 55.0849 704.03 55.6185C702.163 56.4721 700.162 57.1123 698.028 57.5391C695.948 57.9659 693.84 58.1793 691.706 58.1793ZM721.931 58.0193C719.584 58.0193 717.77 57.4057 716.49 56.1786C715.262 54.9516 714.649 53.1643 714.649 50.8168V24.328C714.649 22.0338 715.236 20.2733 716.41 19.0462C717.637 17.8191 719.371 17.2056 721.611 17.2056C723.852 17.2056 725.559 17.8191 726.733 19.0462C727.907 20.2733 728.494 22.0338 728.494 24.328V27.6091H727.693C728.227 24.408 729.587 21.8738 731.775 20.0065C734.015 18.1392 736.79 17.1522 740.097 17.0455C741.645 16.9922 742.792 17.3923 743.539 18.2459C744.339 19.0462 744.766 20.5667 744.819 22.8074C744.819 24.7281 744.419 26.2486 743.619 27.369C742.818 28.4893 741.298 29.1562 739.057 29.3696L737.217 29.5297C734.389 29.7965 732.335 30.5967 731.054 31.9305C729.774 33.2109 729.134 35.1316 729.134 37.6924V50.8168C729.134 53.1643 728.52 54.9516 727.293 56.1786C726.066 57.4057 724.279 58.0193 721.931 58.0193ZM14.5649 145.449C12.911 145.449 11.5772 145.022 10.5635 144.168C9.54983 143.315 8.90962 142.194 8.64286 140.807C8.42946 139.42 8.66954 137.953 9.36311 136.406L14.7249 124.802V130.564L1.04031 99.2731C0.346744 97.6726 0.106663 96.1787 0.320068 94.7916C0.586825 93.4045 1.30707 92.3108 2.48079 91.5105C3.65452 90.6569 5.25506 90.2301 7.28241 90.2301C8.98965 90.2301 10.3501 90.6302 11.3638 91.4305C12.4308 92.1774 13.3911 93.6712 14.2447 95.912L22.2474 116.719H19.5265L28.0094 95.832C28.863 93.6446 29.8233 92.1774 30.8903 91.4305C32.0107 90.6302 33.5045 90.2301 35.3718 90.2301C36.9724 90.2301 38.2528 90.6569 39.2131 91.5105C40.1735 92.3108 40.7603 93.4045 40.9737 94.7916C41.1871 96.1787 40.947 97.6726 40.2535 99.2731L22.0874 140.087C21.1271 142.221 20.06 143.635 18.8863 144.328C17.7659 145.075 16.3254 145.449 14.5649 145.449ZM65.3275 131.204C60.9527 131.204 57.1381 130.377 53.8837 128.723C50.6293 127.069 48.0951 124.695 46.2811 121.601C44.4672 118.506 43.5602 114.852 43.5602 110.637C43.5602 107.436 44.067 104.582 45.0807 102.074C46.0944 99.5132 47.5616 97.3525 49.4822 95.5919C51.4028 93.7779 53.6969 92.4175 56.3645 91.5105C59.0321 90.5502 62.0197 90.07 65.3275 90.07C69.7023 90.07 73.5169 90.897 76.7714 92.5509C80.0258 94.2047 82.5333 96.5789 84.2939 99.6732C86.1078 102.714 87.0148 106.369 87.0148 110.637C87.0148 113.785 86.508 116.639 85.4943 119.2C84.4806 121.761 83.0135 123.948 81.0928 125.762C79.2255 127.523 76.9314 128.883 74.2105 129.843C71.5429 130.75 68.5819 131.204 65.3275 131.204ZM65.3275 120.72C66.768 120.72 68.0484 120.374 69.1688 119.68C70.2892 118.933 71.1428 117.839 71.7297 116.399C72.3699 114.905 72.69 112.984 72.69 110.637C72.69 107.062 71.9964 104.502 70.6093 102.954C69.2222 101.354 67.4616 100.554 65.3275 100.554C63.887 100.554 62.6066 100.9 61.4862 101.594C60.3659 102.287 59.4856 103.381 58.8453 104.875C58.2051 106.315 57.885 108.236 57.885 110.637C57.885 114.158 58.5786 116.719 59.9657 118.32C61.3529 119.92 63.1401 120.72 65.3275 120.72ZM108.267 131.204C104.852 131.204 102.052 130.59 99.8641 129.363C97.6767 128.083 96.0228 126.189 94.9024 123.681C93.8354 121.174 93.3019 117.999 93.3019 114.158V97.3525C93.3019 95.005 93.9155 93.2444 95.1425 92.0707C96.3696 90.8436 98.1302 90.2301 100.424 90.2301C102.718 90.2301 104.479 90.8436 105.706 92.0707C106.933 93.2444 107.547 95.005 107.547 97.3525V114.558C107.547 116.479 107.947 117.919 108.747 118.88C109.547 119.84 110.801 120.32 112.508 120.32C114.429 120.32 116.003 119.627 117.23 118.239C118.457 116.852 119.071 115.012 119.071 112.718V97.3525C119.071 95.005 119.684 93.2444 120.911 92.0707C122.138 90.8436 123.899 90.2301 126.193 90.2301C128.487 90.2301 130.248 90.8436 131.475 92.0707C132.702 93.2444 133.315 95.005 133.315 97.3525V123.841C133.315 128.643 131.021 131.044 126.433 131.044C124.192 131.044 122.458 130.43 121.231 129.203C120.004 127.976 119.391 126.189 119.391 123.841V119.2L120.671 123.121C119.497 125.735 117.843 127.736 115.709 129.123C113.629 130.51 111.148 131.204 108.267 131.204ZM179.868 131.204C176.507 131.204 173.52 130.377 170.905 128.723C168.345 127.069 166.317 124.695 164.823 121.601C163.383 118.506 162.663 114.852 162.663 110.637C162.663 106.315 163.383 102.634 164.823 99.5932C166.317 96.5522 168.345 94.2047 170.905 92.5509C173.52 90.897 176.507 90.07 179.868 90.07C182.803 90.07 185.444 90.7636 187.791 92.1507C190.139 93.5379 191.712 95.3251 192.513 97.5125H191.632V80.3868C191.632 78.0393 192.246 76.252 193.473 75.025C194.7 73.7979 196.461 73.1844 198.755 73.1844C200.996 73.1844 202.729 73.7979 203.957 75.025C205.237 76.252 205.877 78.0393 205.877 80.3868V123.841C205.877 126.189 205.264 127.976 204.037 129.203C202.863 130.43 201.129 131.044 198.835 131.044C196.594 131.044 194.86 130.43 193.633 129.203C192.406 127.976 191.792 126.189 191.792 123.841V119.28L192.673 123.201C191.926 125.602 190.352 127.549 187.951 129.043C185.604 130.484 182.909 131.204 179.868 131.204ZM184.43 120.72C185.87 120.72 187.151 120.374 188.271 119.68C189.392 118.933 190.245 117.839 190.832 116.399C191.472 114.905 191.792 112.984 191.792 110.637C191.792 107.062 191.099 104.502 189.712 102.954C188.325 101.354 186.564 100.554 184.43 100.554C182.99 100.554 181.709 100.9 180.589 101.594C179.468 102.287 178.588 103.381 177.948 104.875C177.308 106.315 176.988 108.236 176.988 110.637C176.988 114.158 177.681 116.719 179.068 118.32C180.455 119.92 182.243 120.72 184.43 120.72ZM235.577 131.204C230.775 131.204 226.614 130.377 223.092 128.723C219.625 127.016 216.957 124.615 215.09 121.521C213.222 118.426 212.289 114.772 212.289 110.557C212.289 106.502 213.169 102.954 214.93 99.9133C216.744 96.819 219.198 94.4181 222.292 92.7109C225.44 90.9503 229.014 90.07 233.016 90.07C235.95 90.07 238.618 90.5502 241.018 91.5105C243.419 92.4175 245.473 93.7779 247.18 95.5919C248.888 97.3525 250.168 99.4865 251.022 101.994C251.929 104.502 252.382 107.302 252.382 110.397C252.382 111.464 252.089 112.264 251.502 112.798C250.915 113.278 249.981 113.518 248.701 113.518H224.213V106.796H241.979L240.698 107.836C240.698 105.862 240.432 104.261 239.898 103.034C239.364 101.807 238.564 100.874 237.497 100.233C236.484 99.5932 235.203 99.2731 233.656 99.2731C232.002 99.2731 230.562 99.6732 229.334 100.474C228.161 101.22 227.254 102.341 226.614 103.835C225.973 105.328 225.653 107.196 225.653 109.437V110.157C225.653 113.945 226.48 116.666 228.134 118.32C229.841 119.92 232.456 120.72 235.977 120.72C237.15 120.72 238.484 120.587 239.978 120.32C241.525 120 242.992 119.573 244.38 119.04C245.767 118.506 246.967 118.426 247.981 118.8C248.994 119.12 249.768 119.707 250.301 120.56C250.888 121.361 251.208 122.294 251.262 123.361C251.315 124.375 251.075 125.389 250.542 126.402C250.008 127.363 249.128 128.109 247.901 128.643C246.033 129.497 244.033 130.137 241.899 130.564C239.818 130.99 237.711 131.204 235.577 131.204ZM274.205 131.204C271.857 131.204 269.456 131.017 267.002 130.644C264.601 130.324 262.414 129.71 260.44 128.803C259.106 128.27 258.146 127.549 257.559 126.642C257.025 125.735 256.759 124.775 256.759 123.761C256.812 122.748 257.105 121.841 257.639 121.04C258.226 120.187 258.973 119.6 259.88 119.28C260.84 118.906 261.907 118.933 263.081 119.36C265.322 120.16 267.322 120.747 269.083 121.12C270.897 121.441 272.631 121.601 274.285 121.601C276.259 121.601 277.672 121.334 278.526 120.8C279.38 120.213 279.806 119.467 279.806 118.56C279.806 117.759 279.513 117.146 278.926 116.719C278.393 116.292 277.619 115.999 276.605 115.839L267.722 114.398C264.415 113.811 261.854 112.611 260.04 110.797C258.226 108.93 257.319 106.502 257.319 103.515C257.319 100.74 258.092 98.3661 259.64 96.3921C261.24 94.3648 263.401 92.8176 266.122 91.7506C268.896 90.6302 272.07 90.07 275.645 90.07C278.046 90.07 280.233 90.2568 282.207 90.6302C284.181 90.9503 286.102 91.5639 287.969 92.4708C289.143 92.951 289.97 93.6446 290.45 94.5515C290.93 95.4585 291.117 96.4188 291.01 97.4325C290.903 98.3928 290.557 99.2998 289.97 100.153C289.436 100.954 288.689 101.514 287.729 101.834C286.769 102.101 285.648 102.021 284.368 101.594C282.607 100.9 281.033 100.393 279.646 100.073C278.313 99.7533 277.059 99.5932 275.885 99.5932C273.698 99.5932 272.15 99.8867 271.244 100.474C270.337 101.06 269.883 101.807 269.883 102.714C269.883 103.408 270.123 103.995 270.603 104.475C271.083 104.902 271.83 105.195 272.844 105.355L281.727 106.876C285.142 107.409 287.756 108.583 289.57 110.397C291.437 112.157 292.371 114.558 292.371 117.599C292.371 121.921 290.717 125.282 287.409 127.683C284.101 130.03 279.7 131.204 274.205 131.204ZM319.667 131.204C314.866 131.204 310.704 130.377 307.183 128.723C303.715 127.016 301.048 124.615 299.18 121.521C297.313 118.426 296.379 114.772 296.379 110.557C296.379 106.502 297.26 102.954 299.02 99.9133C300.834 96.819 303.288 94.4181 306.383 92.7109C309.531 90.9503 313.105 90.07 317.106 90.07C320.041 90.07 322.708 90.5502 325.109 91.5105C327.51 92.4175 329.564 93.7779 331.271 95.5919C332.978 97.3525 334.259 99.4865 335.112 101.994C336.019 104.502 336.473 107.302 336.473 110.397C336.473 111.464 336.179 112.264 335.593 112.798C335.006 113.278 334.072 113.518 332.792 113.518H308.303V106.796H326.069L324.789 107.836C324.789 105.862 324.522 104.261 323.989 103.034C323.455 101.807 322.655 100.874 321.588 100.233C320.574 99.5932 319.294 99.2731 317.747 99.2731C316.093 99.2731 314.652 99.6732 313.425 100.474C312.251 101.22 311.344 102.341 310.704 103.835C310.064 105.328 309.744 107.196 309.744 109.437V110.157C309.744 113.945 310.571 116.666 312.225 118.32C313.932 119.92 316.546 120.72 320.067 120.72C321.241 120.72 322.575 120.587 324.069 120.32C325.616 120 327.083 119.573 328.47 119.04C329.857 118.506 331.058 118.426 332.071 118.8C333.085 119.12 333.859 119.707 334.392 120.56C334.979 121.361 335.299 122.294 335.353 123.361C335.406 124.375 335.166 125.389 334.632 126.402C334.099 127.363 333.219 128.109 331.991 128.643C330.124 129.497 328.123 130.137 325.989 130.564C323.909 130.99 321.801 131.204 319.667 131.204ZM349.892 131.044C347.545 131.044 345.731 130.43 344.451 129.203C343.224 127.976 342.61 126.189 342.61 123.841V97.3525C342.61 95.0584 343.197 93.2978 344.371 92.0707C345.598 90.8436 347.332 90.2301 349.572 90.2301C351.813 90.2301 353.52 90.8436 354.694 92.0707C355.868 93.2978 356.455 95.0584 356.455 97.3525V100.634H355.654C356.188 97.4325 357.548 94.8983 359.736 93.031C361.976 91.1637 364.751 90.1767 368.059 90.07C369.606 90.0167 370.753 90.4168 371.5 91.2704C372.3 92.0707 372.727 93.5912 372.78 95.832C372.78 97.7526 372.38 99.2731 371.58 100.393C370.779 101.514 369.259 102.181 367.018 102.394L365.178 102.554C362.35 102.821 360.296 103.621 359.015 104.955C357.735 106.235 357.095 108.156 357.095 110.717V123.841C357.095 126.189 356.481 127.976 355.254 129.203C354.027 130.43 352.24 131.044 349.892 131.044ZM397.178 131.044C395.31 131.044 393.71 130.59 392.376 129.683C391.096 128.723 390.029 127.309 389.175 125.442L377.731 99.2731C377.091 97.6726 376.878 96.1787 377.091 94.7916C377.304 93.4045 377.971 92.3108 379.092 91.5105C380.265 90.6569 381.866 90.2301 383.893 90.2301C385.6 90.2301 386.961 90.6302 387.975 91.4305C389.042 92.1774 390.002 93.6712 390.856 95.912L398.938 116.719H396.217L404.7 95.832C405.554 93.6446 406.514 92.1774 407.581 91.4305C408.648 90.6302 410.115 90.2301 411.983 90.2301C413.583 90.2301 414.864 90.6569 415.824 91.5105C416.838 92.3108 417.451 93.4045 417.665 94.7916C417.878 96.1787 417.611 97.6726 416.864 99.2731L405.18 125.522C404.38 127.389 403.313 128.776 401.979 129.683C400.699 130.59 399.098 131.044 397.178 131.044ZM443.537 131.204C438.735 131.204 434.574 130.377 431.053 128.723C427.585 127.016 424.917 124.615 423.05 121.521C421.183 118.426 420.249 114.772 420.249 110.557C420.249 106.502 421.129 102.954 422.89 99.9133C424.704 96.819 427.158 94.4181 430.253 92.7109C433.4 90.9503 436.975 90.07 440.976 90.07C443.91 90.07 446.578 90.5502 448.979 91.5105C451.38 92.4175 453.434 93.7779 455.141 95.5919C456.848 97.3525 458.129 99.4865 458.982 101.994C459.889 104.502 460.343 107.302 460.343 110.397C460.343 111.464 460.049 112.264 459.462 112.798C458.875 113.278 457.942 113.518 456.661 113.518H432.173V106.796H449.939L448.659 107.836C448.659 105.862 448.392 104.261 447.858 103.034C447.325 101.807 446.525 100.874 445.458 100.233C444.444 99.5932 443.164 99.2731 441.616 99.2731C439.962 99.2731 438.522 99.6732 437.295 100.474C436.121 101.22 435.214 102.341 434.574 103.835C433.934 105.328 433.614 107.196 433.614 109.437V110.157C433.614 113.945 434.441 116.666 436.094 118.32C437.802 119.92 440.416 120.72 443.937 120.72C445.111 120.72 446.445 120.587 447.938 120.32C449.486 120 450.953 119.573 452.34 119.04C453.727 118.506 454.927 118.426 455.941 118.8C456.955 119.12 457.728 119.707 458.262 120.56C458.849 121.361 459.169 122.294 459.222 123.361C459.276 124.375 459.036 125.389 458.502 126.402C457.969 127.363 457.088 128.109 455.861 128.643C453.994 129.497 451.993 130.137 449.859 130.564C447.778 130.99 445.671 131.204 443.537 131.204ZM475.203 139.927C474.349 141.1 473.389 141.741 472.322 141.847C471.308 142.007 470.428 141.794 469.681 141.207C468.934 140.674 468.507 139.9 468.4 138.886C468.347 137.926 468.8 136.859 469.761 135.685C471.095 134.138 471.975 132.591 472.402 131.044C472.828 129.497 473.042 128.109 473.042 126.882L473.522 130.804C471.068 130.804 469.094 130.11 467.6 128.723C466.106 127.283 465.359 125.362 465.359 122.961C465.359 120.667 466.053 118.826 467.44 117.439C468.881 115.999 470.801 115.278 473.202 115.278C475.709 115.278 477.657 116.132 479.044 117.839C480.431 119.493 481.125 121.814 481.125 124.802C481.125 126.296 480.965 127.816 480.644 129.363C480.378 130.91 479.818 132.538 478.964 134.245C478.164 136.005 476.91 137.899 475.203 139.927ZM519.585 131.044C517.238 131.044 515.397 130.404 514.063 129.123C512.783 127.789 512.143 125.895 512.143 123.441V81.5071C512.143 79.053 512.783 77.1857 514.063 75.9053C515.397 74.5715 517.318 73.9046 519.825 73.9046H546.474C548.395 73.9046 549.835 74.3848 550.796 75.3451C551.756 76.3054 552.236 77.6925 552.236 79.5065C552.236 81.3738 551.756 82.8143 550.796 83.8279C549.835 84.7882 548.395 85.2684 546.474 85.2684H526.867V96.6322H544.713C546.581 96.6322 547.995 97.1124 548.955 98.0727C549.969 99.033 550.475 100.42 550.475 102.234C550.475 104.101 549.969 105.515 548.955 106.476C547.995 107.436 546.581 107.916 544.713 107.916H526.867V123.441C526.867 128.51 524.44 131.044 519.585 131.044ZM569.647 131.204C566.606 131.204 563.912 130.644 561.565 129.523C559.271 128.403 557.457 126.882 556.123 124.962C554.842 122.988 554.202 120.747 554.202 118.239C554.202 115.359 554.949 113.091 556.443 111.437C557.937 109.783 560.338 108.61 563.645 107.916C566.953 107.169 571.355 106.796 576.85 106.796H581.251V113.518H576.85C574.769 113.518 573.035 113.678 571.648 113.998C570.314 114.265 569.327 114.718 568.687 115.359C568.047 115.945 567.727 116.719 567.727 117.679C567.727 118.906 568.154 119.92 569.007 120.72C569.914 121.521 571.195 121.921 572.849 121.921C574.182 121.921 575.356 121.627 576.37 121.04C577.437 120.454 578.29 119.653 578.931 118.64C579.571 117.573 579.891 116.346 579.891 114.958V105.675C579.891 103.755 579.384 102.394 578.37 101.594C577.41 100.794 575.73 100.393 573.329 100.393C572.048 100.393 570.608 100.554 569.007 100.874C567.407 101.14 565.619 101.647 563.645 102.394C562.205 102.928 560.978 103.008 559.964 102.634C558.951 102.261 558.15 101.621 557.563 100.714C557.03 99.8066 556.763 98.8196 556.763 97.7526C556.816 96.6856 557.163 95.6719 557.803 94.7116C558.497 93.7513 559.537 93.0043 560.925 92.4708C563.485 91.5105 565.833 90.8703 567.967 90.5502C570.154 90.2301 572.155 90.07 573.969 90.07C578.344 90.07 581.945 90.7102 584.773 91.9907C587.654 93.2177 589.788 95.1384 591.175 97.7526C592.615 100.313 593.335 103.621 593.335 107.676V123.841C593.335 126.189 592.775 127.976 591.655 129.203C590.534 130.43 588.907 131.044 586.773 131.044C584.586 131.044 582.905 130.43 581.732 129.203C580.611 127.976 580.051 126.189 580.051 123.841V121.761L580.531 122.881C580.264 124.588 579.651 126.055 578.69 127.283C577.73 128.51 576.476 129.47 574.929 130.163C573.382 130.857 571.621 131.204 569.647 131.204ZM617.132 131.204C614.785 131.204 612.384 131.017 609.93 130.644C607.529 130.324 605.342 129.71 603.368 128.803C602.034 128.27 601.073 127.549 600.487 126.642C599.953 125.735 599.686 124.775 599.686 123.761C599.74 122.748 600.033 121.841 600.567 121.04C601.153 120.187 601.9 119.6 602.807 119.28C603.768 118.906 604.835 118.933 606.008 119.36C608.249 120.16 610.25 120.747 612.01 121.12C613.824 121.441 615.558 121.601 617.212 121.601C619.186 121.601 620.6 121.334 621.454 120.8C622.307 120.213 622.734 119.467 622.734 118.56C622.734 117.759 622.441 117.146 621.854 116.719C621.32 116.292 620.547 115.999 619.533 115.839L610.65 114.398C607.342 113.811 604.781 112.611 602.967 110.797C601.153 108.93 600.246 106.502 600.246 103.515C600.246 100.74 601.02 98.3661 602.567 96.3921C604.168 94.3648 606.329 92.8176 609.049 91.7506C611.824 90.6302 614.998 90.07 618.573 90.07C620.973 90.07 623.161 90.2568 625.135 90.6302C627.109 90.9503 629.029 91.5639 630.897 92.4708C632.071 92.951 632.897 93.6446 633.378 94.5515C633.858 95.4585 634.044 96.4188 633.938 97.4325C633.831 98.3928 633.484 99.2998 632.897 100.153C632.364 100.954 631.617 101.514 630.657 101.834C629.696 102.101 628.576 102.021 627.296 101.594C625.535 100.9 623.961 100.393 622.574 100.073C621.24 99.7533 619.986 99.5932 618.813 99.5932C616.625 99.5932 615.078 99.8867 614.171 100.474C613.264 101.06 612.811 101.807 612.811 102.714C612.811 103.408 613.051 103.995 613.531 104.475C614.011 104.902 614.758 105.195 615.772 105.355L624.655 106.876C628.069 107.409 630.683 108.583 632.497 110.397C634.365 112.157 635.298 114.558 635.298 117.599C635.298 121.921 633.644 125.282 630.337 127.683C627.029 130.03 622.627 131.204 617.132 131.204ZM661.404 131.204C657.403 131.204 654.095 130.59 651.481 129.363C648.92 128.136 646.999 126.296 645.719 123.841C644.438 121.334 643.798 118.213 643.798 114.478V101.434H641.077C639.37 101.434 638.036 100.98 637.076 100.073C636.169 99.1664 635.715 97.8593 635.715 96.1521C635.715 94.4448 636.169 93.1644 637.076 92.3108C638.036 91.4038 639.37 90.9503 641.077 90.9503H643.798V85.9887C643.798 83.6412 644.412 81.8539 645.639 80.6269C646.866 79.3998 648.626 78.7862 650.92 78.7862C653.214 78.7862 654.975 79.3998 656.202 80.6269C657.429 81.8539 658.043 83.6412 658.043 85.9887V90.9503H664.605C666.366 90.9503 667.699 91.4038 668.606 92.3108C669.567 93.1644 670.047 94.4448 670.047 96.1521C670.047 97.8593 669.567 99.1664 668.606 100.073C667.699 100.98 666.366 101.434 664.605 101.434H658.043V113.998C658.043 115.972 658.496 117.439 659.403 118.4C660.364 119.307 661.857 119.76 663.885 119.76C664.632 119.76 665.352 119.68 666.045 119.52C666.739 119.36 667.379 119.28 667.966 119.28C668.82 119.226 669.513 119.493 670.047 120.08C670.58 120.614 670.847 121.867 670.847 123.841C670.847 125.442 670.607 126.802 670.127 127.923C669.647 128.99 668.793 129.763 667.566 130.244C666.819 130.51 665.805 130.724 664.525 130.884C663.245 131.097 662.204 131.204 661.404 131.204ZM695.887 131.204C691.086 131.204 686.924 130.377 683.403 128.723C679.935 127.016 677.268 124.615 675.4 121.521C673.533 118.426 672.6 114.772 672.6 110.557C672.6 106.502 673.48 102.954 675.24 99.9133C677.054 96.819 679.509 94.4181 682.603 92.7109C685.751 90.9503 689.325 90.07 693.326 90.07C696.261 90.07 698.928 90.5502 701.329 91.5105C703.73 92.4175 705.784 93.7779 707.491 95.5919C709.198 97.3525 710.479 99.4865 711.333 101.994C712.24 104.502 712.693 107.302 712.693 110.397C712.693 111.464 712.4 112.264 711.813 112.798C711.226 113.278 710.292 113.518 709.012 113.518H684.524V106.796H702.289L701.009 107.836C701.009 105.862 700.742 104.261 700.209 103.034C699.675 101.807 698.875 100.874 697.808 100.233C696.794 99.5932 695.514 99.2731 693.967 99.2731C692.313 99.2731 690.872 99.6732 689.645 100.474C688.472 101.22 687.565 102.341 686.924 103.835C686.284 105.328 685.964 107.196 685.964 109.437V110.157C685.964 113.945 686.791 116.666 688.445 118.32C690.152 119.92 692.766 120.72 696.287 120.72C697.461 120.72 698.795 120.587 700.289 120.32C701.836 120 703.303 119.573 704.69 119.04C706.077 118.506 707.278 118.426 708.292 118.8C709.305 119.12 710.079 119.707 710.612 120.56C711.199 121.361 711.519 122.294 711.573 123.361C711.626 124.375 711.386 125.389 710.852 126.402C710.319 127.363 709.439 128.109 708.211 128.643C706.344 129.497 704.344 130.137 702.209 130.564C700.129 130.99 698.021 131.204 695.887 131.204ZM726.112 131.044C723.765 131.044 721.951 130.43 720.671 129.203C719.444 127.976 718.83 126.189 718.83 123.841V97.3525C718.83 95.0584 719.417 93.2978 720.591 92.0707C721.818 90.8436 723.552 90.2301 725.792 90.2301C728.033 90.2301 729.74 90.8436 730.914 92.0707C732.088 93.2978 732.675 95.0584 732.675 97.3525V100.634H731.874C732.408 97.4325 733.768 94.8983 735.956 93.031C738.197 91.1637 740.971 90.1767 744.279 90.07C745.826 90.0167 746.973 90.4168 747.72 91.2704C748.52 92.0707 748.947 93.5912 749 95.832C749 97.7526 748.6 99.2731 747.8 100.393C747 101.514 745.479 102.181 743.238 102.394L741.398 102.554C738.57 102.821 736.516 103.621 735.236 104.955C733.955 106.235 733.315 108.156 733.315 110.717V123.841C733.315 126.189 732.701 127.976 731.474 129.203C730.247 130.43 728.46 131.044 726.112 131.044Z" fill="#1D1D20"/>
<path d="M340.085 58.1793C336.084 58.1793 332.776 57.5658 330.162 56.3387C327.601 55.1116 325.68 53.271 324.4 50.8168C323.119 48.3093 322.479 45.1883 322.479 41.4537V28.4093H319.758C318.051 28.4093 316.717 27.9558 315.757 27.0489C314.85 26.1419 314.396 24.8348 314.396 23.1275C314.396 21.4203 314.85 20.1399 315.757 19.2863C316.717 18.3793 318.051 17.9258 319.758 17.9258H322.479V12.9641C322.479 10.6167 323.093 8.82941 324.32 7.60233C325.547 6.37525 327.307 5.76172 329.602 5.76172C331.896 5.76172 333.656 6.37525 334.883 7.60233C336.11 8.82941 336.724 10.6167 336.724 12.9641V17.9258H343.286C345.047 17.9258 346.381 18.3793 347.287 19.2863C348.248 20.1399 348.728 21.4203 348.728 23.1275C348.728 24.8348 348.248 26.1419 347.287 27.0489C346.381 27.9558 345.047 28.4093 343.286 28.4093H336.724V40.9735C336.724 42.9475 337.177 44.4147 338.084 45.375C339.045 46.282 340.539 46.7355 342.566 46.7355C343.313 46.7355 344.033 46.6554 344.727 46.4954C345.42 46.3353 346.06 46.2553 346.647 46.2553C347.501 46.202 348.194 46.4687 348.728 47.0556C349.261 47.5891 349.528 48.8428 349.528 50.8168C349.528 52.4174 349.288 53.7778 348.808 54.8982C348.328 55.9652 347.474 56.7388 346.247 57.219C345.5 57.4858 344.487 57.6992 343.206 57.8592C341.926 58.0726 340.885 58.1793 340.085 58.1793ZM374.569 58.1793C369.767 58.1793 365.606 57.3524 362.084 55.6985C358.617 53.9912 355.949 51.5904 354.082 48.4961C352.214 45.4017 351.281 41.7471 351.281 37.5324C351.281 33.4777 352.161 29.9298 353.922 26.8888C355.736 23.7944 358.19 21.3936 361.284 19.6864C364.432 17.9258 368.006 17.0455 372.008 17.0455C374.942 17.0455 377.61 17.5257 380.01 18.486C382.411 19.393 384.465 20.7534 386.172 22.5674C387.88 24.328 389.16 26.462 390.014 28.9695C390.921 31.477 391.374 34.278 391.374 37.3723C391.374 38.4394 391.081 39.2396 390.494 39.7731C389.907 40.2533 388.973 40.4934 387.693 40.4934H363.205V33.7711H380.971L379.69 34.8115C379.69 32.8375 379.423 31.2369 378.89 30.0099C378.356 28.7828 377.556 27.8491 376.489 27.2089C375.476 26.5687 374.195 26.2486 372.648 26.2486C370.994 26.2486 369.554 26.6487 368.326 27.449C367.153 28.1959 366.246 29.3163 365.606 30.8101C364.965 32.304 364.645 34.1713 364.645 36.412V37.1323C364.645 40.9202 365.472 43.6411 367.126 45.295C368.833 46.8955 371.447 47.6958 374.969 47.6958C376.142 47.6958 377.476 47.5624 378.97 47.2957C380.517 46.9756 381.984 46.5487 383.371 46.0152C384.759 45.4817 385.959 45.4017 386.973 45.7752C387.986 46.0953 388.76 46.6821 389.293 47.5357C389.88 48.336 390.2 49.2697 390.254 50.3367C390.307 51.3504 390.067 52.364 389.534 53.3777C389 54.338 388.12 55.0849 386.893 55.6185C385.025 56.4721 383.025 57.1123 380.891 57.5391C378.81 57.9659 376.703 58.1793 374.569 58.1793ZM417.598 58.1793C413.17 58.1793 409.302 57.3524 405.994 55.6985C402.74 54.0446 400.205 51.6705 398.392 48.5761C396.578 45.4284 395.671 41.7471 395.671 37.5324C395.671 34.3313 396.177 31.477 397.191 28.9695C398.205 26.4087 399.672 24.2479 401.593 22.4873C403.567 20.7267 405.887 19.393 408.555 18.486C411.276 17.5257 414.29 17.0455 417.598 17.0455C419.145 17.0455 420.772 17.2056 422.48 17.5257C424.187 17.7924 425.947 18.3259 427.761 19.1262C429.042 19.6064 429.922 20.3533 430.402 21.367C430.936 22.3273 431.149 23.3676 431.042 24.488C430.989 25.6084 430.669 26.6221 430.082 27.529C429.549 28.436 428.775 29.0495 427.761 29.3696C426.801 29.6898 425.707 29.5564 424.48 28.9695C423.627 28.5427 422.72 28.2493 421.759 28.0892C420.852 27.8758 419.972 27.7691 419.118 27.7691C417.678 27.7691 416.398 27.9825 415.277 28.4093C414.21 28.8361 413.303 29.4763 412.556 30.33C411.809 31.1302 411.223 32.1439 410.796 33.371C410.422 34.5981 410.236 35.9852 410.236 37.5324C410.236 40.6268 411.009 43.0542 412.556 44.8148C414.103 46.5754 416.291 47.4557 419.118 47.4557C419.972 47.4557 420.852 47.3757 421.759 47.2156C422.666 47.0022 423.573 46.6821 424.48 46.2553C425.707 45.6685 426.801 45.5617 427.761 45.9352C428.722 46.2553 429.495 46.8689 430.082 47.7758C430.669 48.6828 430.989 49.6965 431.042 50.8168C431.096 51.8839 430.856 52.9242 430.322 53.9379C429.789 54.8982 428.882 55.6185 427.601 56.0986C425.841 56.8989 424.107 57.4324 422.4 57.6992C420.746 58.0193 419.145 58.1793 417.598 58.1793ZM443.317 58.0193C441.076 58.0193 439.342 57.4057 438.115 56.1786C436.888 54.9516 436.274 53.1643 436.274 50.8168V7.36226C436.274 5.0148 436.888 3.22753 438.115 2.00045C439.342 0.773374 441.076 0.159835 443.317 0.159835C445.611 0.159835 447.371 0.773374 448.598 2.00045C449.879 3.22753 450.519 5.0148 450.519 7.36226V24.8081H449.239C450.519 22.3006 452.333 20.38 454.68 19.0462C457.081 17.7124 459.802 17.0455 462.843 17.0455C465.991 17.0455 468.578 17.659 470.606 18.8861C472.633 20.0599 474.154 21.9271 475.167 24.488C476.181 26.9955 476.688 30.1699 476.688 34.0112V50.8168C476.688 53.1643 476.074 54.9516 474.847 56.1786C473.62 57.4057 471.86 58.0193 469.565 58.0193C467.271 58.0193 465.511 57.4057 464.284 56.1786C463.057 54.9516 462.443 53.1643 462.443 50.8168V34.5714C462.443 32.1706 462.016 30.4633 461.163 29.4497C460.362 28.436 459.162 27.9292 457.561 27.9292C455.427 27.9292 453.72 28.6227 452.44 30.0099C451.159 31.3436 450.519 33.1576 450.519 35.4517V50.8168C450.519 55.6185 448.118 58.0193 443.317 58.0193Z" fill="url(#paint0_linear_228_441)"/>
<defs>
<linearGradient id="paint0_linear_228_441" x1="-19.9686" y1="67.8025" x2="768.296" y2="67.8025" gradientUnits="userSpaceOnUse">
<stop offset="0.396" stop-color="#0667D0"/>
<stop offset="0.576" stop-color="#054E9D"/>
<stop offset="0.906" stop-color="#03346A"/>
</linearGradient>
</defs>
</svg>
